HIERARCHY
ROOT Hips
{
 OFFSET 0.000000 0.000000 0.000000
 CHANNELS 6 Xposition Yposition Zposition Yrotation Xrotation Zrotation
 JOINT Chest
 {
  OFFSET 0.000000 9.585900 0.002600
  CHANNELS 3 Yrotation Xrotation Zrotation
  JOINT Chest2
  {
   OFFSET 0.000000 9.601200 -0.005300
   CHANNELS 3 Yrotation Xrotation Zrotation
   JOINT Chest3
   {
    OFFSET 0.000000 9.561800 0.000000
    CHANNELS 3 Yrotation Xrotation Zrotation
    JOINT Chest4
    {
     OFFSET 0.000000 9.552100 0.000000
     CHANNELS 3 Yrotation Xrotation Zrotation
     JOINT Neck
     {
      OFFSET 0.000000 14.453000 0.000000
      CHANNELS 3 Yrotation Xrotation Zrotation
      JOINT Head
      {
       OFFSET 0.000000 8.936500 -0.011300
       CHANNELS 3 Yrotation Xrotation Zrotation
       End Site
       {
        OFFSET 0.000000 17.073600 -0.006000
       }
      }
     }
     JOINT RightCollar
     {
      OFFSET -2.921100 9.558500 0.000000
      CHANNELS 3 Yrotation Xrotation Zrotation
      JOINT RightShoulder
      {
       OFFSET -13.519700 0.000000 0.000000
       CHANNELS 3 Yrotation Xrotation Zrotation
       JOINT RightElbow
       {
        OFFSET 0.000000 -29.696600 0.000000
        CHANNELS 3 Yrotation Xrotation Zrotation
        JOINT RightWrist
        {
         OFFSET 0.000000 -24.004700 0.000000
         CHANNELS 3 Yrotation Xrotation Zrotation
         End Site
         {
          OFFSET 0.000000 -17.728500 0.000000
         }
        }
       }
      }
     }
     JOINT LeftCollar
     {
      OFFSET 2.921100 9.558500 0.000000
      CHANNELS 3 Yrotation Xrotation Zrotation
      JOINT LeftShoulder
      {
       OFFSET 13.519700 0.000000 0.000000
       CHANNELS 3 Yrotation Xrotation Zrotation
       JOINT LeftElbow
       {
        OFFSET 0.000000 -29.696600 0.000000
        CHANNELS 3 Yrotation Xrotation Zrotation
        JOINT LeftWrist
        {
         OFFSET 0.000000 -24.004700 0.000000
         CHANNELS 3 Yrotation Xrotation Zrotation
         End Site
         {
          OFFSET 0.000000 -17.728500 0.000000
         }
        }
       }
      }
     }
    }
   }
  }
 }
 JOINT RightHip
 {
  OFFSET -7.771700 -0.012900 -0.001300
  CHANNELS 3 Yrotation Xrotation Zrotation
  JOINT RightKnee
  {
   OFFSET 0.000000 -40.869800 0.001200
   CHANNELS 3 Yrotation Xrotation Zrotation
   JOINT RightAnkle
   {
    OFFSET 0.000000 -39.717900 0.002100
    CHANNELS 3 Yrotation Xrotation Zrotation
    JOINT RightToe
    {
     OFFSET 0.000000 -4.965400 11.033500
     CHANNELS 3 Yrotation Xrotation Zrotation
     End Site
     {
      OFFSET 0.000000 -1.423100 5.872300
     }
    }
   }
  }
 }
 JOINT LeftHip
 {
  OFFSET 7.771700 -0.012900 -0.001300
  CHANNELS 3 Yrotation Xrotation Zrotation
  JOINT LeftKnee
  {
   OFFSET 0.000000 -40.869800 0.001200
   CHANNELS 3 Yrotation Xrotation Zrotation
   JOINT LeftAnkle
   {
    OFFSET 0.000000 -39.717900 0.002100
    CHANNELS 3 Yrotation Xrotation Zrotation
    JOINT LeftToe
    {
     OFFSET 0.000000 -4.965400 11.033500
     CHANNELS 3 Yrotation Xrotation Zrotation
     End Site
     {
      OFFSET 0.000000 -1.423100 5.872300
     }
    }
   }
  }
 }
}
MOTION
Frames: 9
Frame Time: 0.008333
-94.932358 46.788918 -26.910461 176.275234 -32.362434 -3.287472 -0.364425 17.607630 2.156002 -0.090537 1.923515 0.241507 -0.145828 3.194777 0.399621 -0.506163 15.432867 1.891980 2.805871 19.742013 0.563368 4.947939 0.889657 0.175621 -2.626096 1.443556 -1.917589 -6.122305 -7.090274 -14.276710 -56.557067 -57.006223 96.034232 -4.623373 -6.193745 -14.960161 1.625110 -0.315017 2.726420 5.059342 -4.752083 10.975900 60.189334 -47.304925 -95.237467 10.149326 -2.560912 22.701546 0.241179 -54.591404 0.343358 -175.888198 79.006792 -166.488601 -6.329937 -19.796326 -5.452484 -0.130563 -0.251813 0.566640 -1.703679 -56.355409 12.312677 -108.472674 83.502560 -113.114888 6.058174 -5.139287 4.457426 0.322946 0.176365 0.174305
-95.020926 46.785339 -26.917037 176.306969 -32.316310 -3.174416 -0.364585 17.600457 2.066576 -0.088714 1.923846 0.238652 -0.142885 3.195317 0.394822 -0.494047 15.435717 1.870114 2.883046 19.675574 0.511444 5.105731 0.770096 0.055197 -2.593551 1.423829 -1.909752 -5.890498 -7.078055 -14.366706 -56.202541 -56.945827 96.008854 -4.574639 -6.142582 -15.140096 1.620460 -0.314828 2.719867 4.577613 -4.835661 11.110595 59.695831 -47.066059 -95.230014 10.191724 -2.482406 22.546141 0.206534 -54.616131 -0.177170 -171.022607 78.661261 -161.692474 -6.284828 -19.830429 -5.453658 -0.336286 -0.351963 0.588316 -1.535129 -56.399533 12.052682 -108.474514 83.530767 -113.139335 5.894590 -5.107949 4.419487 0.486623 0.162150 0.241086
-95.116086 46.782619 -26.927772 176.377791 -32.271784 -3.060859 -0.422459 17.587888 1.942566 -0.070388 1.935169 0.243229 -0.138655 3.196553 0.390358 -0.475604 15.440123 1.849951 2.967795 19.609613 0.467165 5.275040 0.651560 -0.053728 -2.559373 1.407938 -1.903819 -5.656842 -7.072894 -14.463297 -55.821320 -56.860091 95.965107 -4.524585 -6.067863 -15.337475 1.617653 -0.312234 2.713750 4.088147 -4.926096 11.244760 59.201919 -46.853364 -95.221571 10.224767 -2.389128 22.360478 0.115012 -54.620150 -0.705982 -166.738725 78.274839 -157.523220 -6.257943 -19.880387 -5.431264 -0.596529 -0.426290 0.571251 -1.363187 -56.437838 11.752570 -108.420735 83.572687 -113.109116 5.694059 -5.052623 4.364949 0.677072 0.133245 0.327754
-95.207401 46.782429 -26.943633 176.448894 -32.246301 -2.971803 -0.506993 17.574680 1.820681 -0.036457 1.957068 0.255921 -0.115849 3.209979 0.392075 -0.448768 15.447357 1.831586 3.055440 19.544323 0.430767 5.447400 0.534296 -0.149344 -2.521554 1.395900 -1.900910 -5.426481 -7.075540 -14.564946 -55.415442 -56.752688 95.908432 -4.472299 -5.963123 -15.559865 1.612168 -0.307804 2.706773 3.590198 -5.029875 11.379075 58.708337 -46.674940 -95.203355 10.243959 -2.283537 22.159725 -0.050171 -54.596262 -1.150772 -163.132847 77.888387 -154.059990 -6.314097 -19.935075 -5.413022 -0.817193 -0.475814 0.551442 -1.227799 -56.454294 11.500922 -108.438506 83.618058 -113.154592 5.541169 -4.999778 4.316158 0.806520 0.093333 0.411224
-95.293368 46.780814 -26.958043 176.516841 -32.198020 -2.900035 -0.534590 17.568451 1.757253 -0.082783 1.925919 0.233255 -0.056733 3.247040 0.405938 -0.414205 15.457480 1.814694 3.142120 19.480094 0.402848 5.615502 0.418820 -0.229287 -2.479373 1.386630 -1.900476 -5.195372 -7.085835 -14.668726 -54.990780 -56.627968 95.838519 -4.417619 -5.822757 -15.811051 1.601508 -0.300350 2.698402 3.085664 -5.149377 11.514866 58.223447 -46.535944 -95.176521 10.247217 -2.159890 21.951913 -0.248328 -54.592617 -1.528430 -160.217499 77.537253 -151.282895 -6.438129 -19.960454 -5.398308 -1.019652 -0.522457 0.508940 -1.107585 -56.491316 11.287298 -108.419226 83.661248 -113.171218 5.338925 -4.961173 4.293993 0.968567 0.070825 0.486389
-95.365957 46.780489 -26.973978 176.564816 -32.158178 -2.868197 -0.476367 17.598422 1.784064 -0.074433 1.930941 0.229021 -0.099337 3.219158 0.384257 -0.375569 15.469435 1.798893 3.225335 19.417396 0.383994 5.774478 0.305782 -0.291791 -2.440935 1.380909 -1.900322 -4.946522 -7.102381 -14.775017 -54.551258 -56.492098 95.753074 -4.360682 -5.649001 -16.097859 1.585317 -0.287968 2.688980 2.580418 -5.279172 11.649550 57.753566 -46.440850 -95.149756 10.225670 -2.011150 21.741484 -0.493997 -54.582194 -1.785376 -157.906579 77.237190 -149.086636 -6.730251 -19.966801 -5.396804 -1.104694 -0.565134 0.483857 -1.060340 -56.526323 11.167363 -108.470575 83.683748 -113.247888 5.247056 -4.927458 4.266766 1.043774 0.045195 0.525165
-95.429031 46.779472 -26.988684 176.606660 -32.109408 -2.849630 -0.435375 17.598755 1.807204 -0.068126 1.935136 0.226149 -0.108861 3.213285 0.374500 -0.336308 15.482835 1.783358 3.303180 19.356576 0.374101 5.921115 0.195832 -0.336400 -2.407286 1.380051 -1.898697 -4.672627 -7.122820 -14.885612 -54.099865 -56.351537 95.653179 -4.300815 -5.443810 -16.423282 1.566556 -0.271564 2.679183 2.076260 -5.410273 11.779296 57.303879 -46.395207 -95.128310 10.176799 -1.838624 21.529724 -0.761382 -54.583953 -1.976041 -156.109774 76.990285 -147.382257 -7.130700 -19.952398 -5.414493 -1.101583 -0.609827 0.468253 -1.028742 -56.569635 11.084456 -108.449705 83.690480 -113.253598 5.168663 -4.906315 4.261376 1.104636 0.028088 0.559482
-95.479675 46.777696 -27.001344 176.638394 -32.052710 -2.852391 -0.431211 17.561364 1.820151 -0.028000 1.957925 0.239682 -0.100154 3.219547 0.370873 -0.294777 15.497667 1.768753 3.373950 19.297088 0.371214 6.052812 0.087909 -0.365957 -2.374389 1.382256 -1.897171 -4.369563 -7.145580 -15.000788 -53.645858 -56.207240 95.539386 -4.233874 -5.203940 -16.782538 1.544640 -0.255464 2.668000 1.577248 -5.535812 11.903200 56.876535 -46.406146 -95.111393 10.108212 -1.647846 21.320457 -1.071825 -54.594987 -2.085667 -154.753102 76.801773 -146.099158 -7.582990 -19.915162 -5.463057 -1.034793 -0.659257 0.460246 -1.003331 -56.627242 11.043889 -108.396835 83.674947 -113.217623 5.116656 -4.888348 4.270084 1.130052 0.016931 0.574977
-95.515926 46.775633 -27.012150 176.652613 -31.994761 -2.881437 -0.348265 17.549919 1.909800 -0.040289 1.952939 0.229555 -0.090572 3.226165 0.367438 -0.248859 15.513281 1.755203 3.435472 19.237959 0.374253 6.165632 -0.019919 -0.381886 -2.340923 1.383106 -1.897282 -4.035186 -7.167845 -15.118208 -53.196619 -56.063646 95.409909 -4.162423 -4.928874 -17.166052 1.515679 -0.242685 2.657389 1.088081 -5.654948 12.017696 56.472976 -46.477091 -95.097592 10.021552 -1.439163 21.119521 -1.425539 -54.606186 -2.115501 -153.731000 76.666507 -145.130601 -8.024759 -19.848668 -5.545091 -0.936612 -0.717943 0.452646 -1.019930 -56.687187 11.067389 -108.364176 83.656818 -113.198240 5.131638 -4.891088 4.279631 1.138018 0.018626 0.579500
